<?xml version="1.0" encoding="UTF-8"?>
<!DOCTYPE svg PUBLIC "-//W3C//DTD SVG 1.0//EN" "http://www.w3.org/TR/2001/REC-SVG-20010904/DTD/svg10.dtd">
<!-- Creator: CorelDRAW X6 -->
<svg xmlns="http://www.w3.org/2000/svg" xml:space="preserve" width="360px" height="480px" version="1.0" style="shape-rendering:geometricPrecision; text-rendering:geometricPrecision; image-rendering:optimizeQuality; fill-rule:evenodd; clip-rule:evenodd"
viewBox="0 0 360 480"
 xmlns:xlink="http://www.w3.org/1999/xlink">
 <defs>
  <style type="text/css">
   <![CDATA[
    .fil0 {fill:blue}
   ]]>
  </style>
 </defs>
 <g id="Layer_x0020_1">
  <metadata id="CorelCorpID_0Corel-Layer"/>
  <path class="fil0" d="M236 316c1,-2 -1,1 0,0zm106 -243l0 3c0,2 0,3 1,5 0,2 0,4 1,5 0,2 1,4 2,6l0 0c0,0 0,1 1,3l1 1c0,1 0,2 1,3 0,1 0,3 1,4l0 1c0,1 -1,3 -1,5 0,2 1,5 2,8 0,2 0,3 1,5l0 26c0,2 0,3 1,5l0 46 3 -3c-1,1 -2,3 -3,4 -2,4 -2,7 -2,11 0,0 0,1 0,1 -1,-1 -1,-1 0,0 0,2 -1,3 -1,5 -2,4 -3,10 -6,11l-2 -8 -3 0 -3 9 6 -1 -2 13 8 2 -7 1 -2 11 -4 0 0 -22 2 0 -5 -7 -2 0 -1 26c1,3 8,-2 4,14 -2,8 -6,-2 -9,2 -5,8 0,-2 -3,1 -5,12 -2,26 -16,33 -11,5 -28,6 -40,7 -2,1 5,4 -7,5 -5,0 -7,3 -6,8 0,1 -20,-4 -20,-4 -12,-9 -28,-48 -40,-64 -11,4 -22,29 -27,39 -9,17 -6,25 -29,30 3,-12 -25,-14 -32,-13l13 -1c-12,-6 -46,1 -56,-19 -3,-6 -6,-20 -8,-27 -1,-2 -1,-3 -2,-5 0,-1 -1,-3 -2,-4 0,-3 -1,-5 -3,-7 0,0 0,-1 0,-1 -1,-3 -1,-14 -2,-21l0 0c1,-1 1,-2 2,-4 1,-1 1,-1 2,-2l278 7c0,-4 -7,0 -8,-8 -2,-12 -1,-27 -3,-38 -1,-9 0,-15 -5,-23 -2,-4 -9,-15 -10,-19 -2,-7 -7,-14 -15,-15 -7,0 -9,-3 -14,-6 -3,-2 -3,2 -5,2 -4,0 -6,-6 -8,-2 -1,2 -8,0 -11,0l1 4 -43 8 0 -2 7 -13c-4,1 -6,15 -19,14 -16,-1 -14,5 -24,7 -13,3 -3,-3 -17,5 -7,4 -1,-4 -8,4 0,0 -7,2 -7,2l2 -4 -28 -15c-2,-1 -11,-4 -17,-8 -6,-3 -10,1 -11,4 0,1 0,2 -1,3l-12 34 0 14 -5 43 -17 2c1,-2 2,-4 2,-7l0 -1c0,-1 0,-2 0,-3l0 0c0,-4 -2,-8 -5,-10 -1,-1 -2,-2 -3,-3l0 -3c0,-2 -1,-5 -2,-7 -1,-4 -4,-7 -8,-8 -2,-1 -5,-2 -7,-2 -1,-1 -3,-2 -5,-3 5,-3 0,-6 0,0 0,0 0,0 -1,0l0 0c-1,-3 -2,-5 -4,-7 -1,-1 -2,-2 -2,-2 2,-2 3,-3 4,-3 1,0 12,-4 10,-5 -1,-1 -8,3 -7,1 4,-7 4,-7 -2,-9 -1,-3 -2,-5 -4,-7 -2,-2 -4,-3 -7,-4 -1,-1 -2,-2 -2,-2l8 3 -2 -2 20 -2 -20 -2 0 -2 23 -3 0 -1 -21 -1 0 -3 -2 2 -1 -2c1,-1 1,-2 2,-3l8 1 0 -3 9 -3 0 -1 -10 1 0 -1 19 -3 -16 -2 23 -2 -12 -1 6 -3 -1 -1 -7 -3 -3 -3c1,0 2,-1 2,-1 1,0 1,0 2,0l2 1 1 -2c1,0 1,0 2,0 0,0 0,0 1,0 3,0 5,-1 8,-2l14 -2 -9 -3c0,0 0,0 0,-1l7 -1 -1 2 8 -2 -7 -3 6 -1 -13 -6c0,0 0,0 0,-1l17 -3c-1,-4 -11,-3 -4,-4 4,-1 11,-5 7,-6 -9,-2 3,-5 1,-13 -1,-4 -2,-3 -2,-11 1,-10 -3,-9 3,-20l3 23 3 0 -5 -3 7 17 13 -13 2 1 -14 15 24 -14 -12 3 10 -11 1 1 15 -4 0 3 14 -7 0 6 3 -6 7 -1 8 -3 -3 5 4 2 -1 5 6 -10 3 4 -49 41 1 1 4 -4 38 -13 0 -2 -4 0 37 -26 1 1 -14 10 34 -16 1 1 -16 12 1 1 29 -17 2 2 -13 15 14 -8 -12 11 1 1 20 -16 -8 13 35 -21 1 1 -10 8 19 -6 1 2 7 -4 -28 21 1 2 14 -9 1 1 -50 23 52 -12 -3 5 5 1 -4 4 22 -4 0 1 -12 1 4 2 -12 5 7 -1 -4 3 31 -7 -5 -1 16 0 -5 1 32 24 -2 2 -4 -15c3,2 5,5 7,8zm-80 236c-2,-2 2,2 0,0zm-192 -15c0,-2 4,-1 2,-5 -1,-2 -3,-4 -2,-7 2,1 2,7 4,7 1,0 3,-4 5,3 1,4 11,6 15,6 1,0 5,2 7,2 12,2 27,2 39,0 3,0 4,0 6,0 3,0 0,-1 4,-2 5,-1 -2,2 -3,3 -6,3 -21,3 -28,3 -10,0 -44,-2 -50,-10zm75 7c-1,0 0,1 0,0 0,0 2,0 0,0zm-60 -4c-1,0 -2,1 0,0 0,0 2,0 0,0zm-7 -2c-1,0 -1,0 -2,-1 0,0 -1,-1 -2,-1 1,2 2,2 4,2zm227 1l2 0c-10,12 -81,13 -80,0 1,0 9,3 11,4 6,2 21,2 28,2 4,0 3,-2 4,-2 1,0 2,1 3,0l-1 -3c6,0 4,2 8,-2 2,-2 7,0 10,0 6,-1 6,1 8,-3 1,-2 3,1 4,1 3,0 2,-2 4,-3 1,2 -2,3 -3,5zm-124 -28l0 1 0 -1zm166 -47c-2,-6 1,3 0,0zm-315 -56l-5 0 0 -1 3 -3 -1 2 5 3 1 0 -4 4 -1 0 2 -4zm272 -20l0 1 0 -1zm-170 -7c0,0 3,-1 2,1 0,0 -3,0 -2,-1zm-2 -1c0,0 3,0 1,1 -1,0 -1,-1 -1,-1zm-51 -1c-2,0 3,0 0,0zm218 -4l0 1 0 -1zm-272 -2l0 1 0 -1zm271 -1c1,1 1,1 0,0zm-71 -1c0,-2 0,2 0,0zm-1 0c-5,-1 3,1 0,0zm-30 0c0,-2 0,2 0,0zm-84 0c-2,-2 2,2 0,0zm99 -2l0 1 0 -1zm-175 -2c0,-2 0,3 0,0zm69 -1c0,-2 0,2 0,0zm-76 0l0 1 0 -1zm257 -1c0,-2 1,0 1,0 1,0 1,0 1,0 0,3 -1,-1 -1,-1zm-35 -1l0 1 0 -1zm-221 -8c1,-1 -1,1 0,0zm9 -13c0,0 3,-3 2,0 -1,2 -3,1 -2,0zm-8 -5l7 -2 -1 3 -6 -1zm22 -5l0 1 0 -1zm16 -3l-6 2 0 -1 7 -2zm274 -7c1,-3 -1,3 0,0zm-276 -2c1,-3 -1,3 0,0zm0 -4c-4,5 -10,-4 0,0zm48 -3l0 1 0 -1zm218 -2l0 1 0 -1zm6 -1c1,-2 -1,2 0,0zm-14 -3l0 1 0 -1zm-228 -2c3,-4 5,-4 9,-6 3,-2 1,-2 4,-3 1,-1 3,-2 4,-3 6,-4 9,-5 13,-7 1,-1 5,-4 7,-2 -1,2 -4,2 -6,3 2,1 1,0 2,2l-6 3 1 2c-2,0 -2,-2 -7,2 -3,3 -1,0 -4,1 -1,0 -9,4 -11,6 -2,2 0,2 -3,2 -5,1 -3,3 -4,1zm5 -23c-2,0 2,0 0,0zm-2 -3c0,-2 0,2 0,0zm109 2l2 -4 1 1 -3 3zm19 3l5 -8 2 1 -7 7zm-122 -7c2,-2 -1,1 0,0zm86 -1c0,-3 0,2 0,0zm33 -3l0 1 0 -1zm28 -6l-3 4 3 -4zm-103 8l1 -6 1 1 -3 6zm-79 -9c-2,-5 1,3 0,0zm199 -4c2,-2 -1,1 0,0zm-198 0c1,1 1,1 0,0z"/>
  <path class="fil0" d="M232 455l0 1 0 -1zm-54 -13l0 1 0 -1zm15 -1c-1,3 1,-5 0,0zm-65 -1c0,-2 0,2 0,0zm-3 -7l0 1 0 -1zm140 -20l0 1 0 -1zm-24 33l50 -56 -1 -1c-3,0 -37,33 -41,38 -6,8 -13,14 -23,15 -7,1 -9,-3 -15,-2 -18,4 -11,-1 -18,-2 0,0 -25,5 -25,5 -2,4 -12,3 -15,2 -6,-3 4,-4 0,-6 -7,-3 -2,6 -13,-5 -6,-6 -4,-1 -10,-11 -5,-9 -15,-11 -16,-24 0,-2 -1,7 -6,0 -3,-4 -4,-6 -8,-10 -14,-15 -22,-2 -4,13 11,9 16,19 25,28 1,2 10,10 10,11 49,52 108,14 112,5z"/>
  <path class="fil0" d="M196 370c-1,3 2,-5 0,0zm-15 -2l0 1 0 -1zm6 1c-4,2 3,-1 0,0zm-42 -4c1,-3 -1,1 0,0zm-33 -5l-4 9 -3 -4 0 5c3,2 6,-1 9,2 2,2 -4,6 2,3 5,-3 4,3 9,-2 1,-2 5,-4 7,-4 0,0 31,16 31,16l2 -8 -7 3c-2,-1 -3,-6 -4,-8l0 2 83 -2 -2 5 -1 -1 -11 8 1 1c0,0 20,-12 24,-14 10,-3 17,-18 25,-1 4,8 3,-29 -10,-24 -7,3 -2,3 -10,3 -11,1 4,7 4,8 0,8 -49,14 -54,13 -11,-2 -22,0 -28,-2 0,0 -32,-3 -33,-3l5 -12c-4,1 -5,2 -7,1l1 -10 -27 18z"/>
  <path class="fil0" d="M204 358c0,-2 0,2 0,0zm-20 0l0 1 0 -1zm18 -18c1,-1 -1,1 0,0zm-35 20l6 -5 4 4 34 -3 4 1 0 -11 10 -12c-3,-2 -25,6 -27,7 -5,4 -23,-5 -31,-6l-16 -7 1 -1c0,4 15,17 15,17 9,1 -8,13 -1,17z"/>
  <path class="fil0" d="M182 425c0,-2 0,2 0,0zm-10 -2c0,-2 0,2 0,0zm-13 -9l7 2 -1 1 20 12 -1 2c4,1 32,-9 34,-20l-4 -2 0 1 -50 -3 -4 6z"/>
  <path class="fil0" d="M312 33c-2,0 -11,-4 -11,-5 10,2 8,1 12,4 3,3 0,0 1,4 -4,-3 -3,-1 -2,-4zm-29 0l0 0c0,0 0,0 0,0zm2 -1c13,-6 1,-2 -3,0 -2,1 -3,2 -5,3 -5,2 -3,1 -4,-1l-2 3c4,1 5,0 7,1 -4,1 -14,0 -16,5 9,0 5,3 13,2 6,-1 9,0 15,-3l-2 -3 9 0 -2 -3 6 2c2,-1 2,-7 6,-3 6,5 5,2 9,4 2,1 7,6 8,2 1,-2 -7,-2 -6,-7l4 1c-1,-3 -3,-7 -7,-5l2 3c-5,1 -14,-11 -23,-5 -4,3 -6,4 -11,6 -2,1 0,-3 0,-3z"/>
  <path class="fil0" d="M84 38l-1 -2 4 -1c-3,2 0,0 -2,2zm-5 -2c0,-1 1,0 0,0 0,0 0,2 0,0zm0 -19l2 1c-2,5 -2,2 -1,8 0,3 -2,6 -4,6 -1,-2 1,-3 0,-5 -5,0 -1,8 1,8 2,-1 1,0 2,2 3,3 0,2 2,5 3,0 2,-1 3,-3 1,-1 3,-1 4,-2 2,-1 5,-4 6,-6l4 0c-2,-2 -6,-1 -11,-4 -6,-3 -3,-6 -4,-8l-2 5c-2,-1 3,-9 3,-13 -2,0 -5,3 -5,6z"/>
  <path class="fil0" d="M330 50l3 2c-3,2 -2,-1 -5,-1 0,3 2,5 5,7 3,2 4,3 6,6l0 0c-1,0 -1,-1 -1,-1 -3,-2 -4,-6 -4,-10 0,-1 0,-2 0,-3l-3 1z"/>
  <path class="fil0" d="M158 42l0 0c0,0 0,0 0,0 0,0 0,0 0,0zm-2 0c1,-1 2,1 1,0 0,0 -2,1 -1,0zm-13 5c3,2 8,-2 10,-5 4,1 2,0 6,1 1,-6 11,-9 11,-12 -4,0 -8,7 -11,6 1,-4 1,3 4,-8 0,-2 3,-6 2,-7 -2,1 -3,5 -4,7 -2,3 -3,4 -5,8 -1,3 -12,9 -13,12z"/>
  <path class="fil0" d="M113 345l0 0c0,0 0,0 0,0 0,0 0,0 0,0zm0 -3l1 2 -2 2 -3 -1c-1,2 0,2 -3,2 1,7 -3,4 -6,7 6,0 -4,-1 8,0 4,0 1,0 4,-1 3,-1 2,0 4,-3l-2 -2c2,-2 2,-1 3,-3 3,0 2,1 4,0l-2 0 3 -5c-2,1 -8,2 -10,1z"/>
  <path class="fil0" d="M138 19l2 2 8 -1c3,0 0,1 3,1 0,-5 2,-5 0,-6 -3,-1 -5,2 -8,1 0,-2 3,-3 4,-3 -3,-1 -1,-1 -3,0 -3,1 -6,4 -8,7z"/>
  <path class="fil0" d="M102 380c2,2 2,1 3,4 -2,0 -1,-1 -3,1l3 1 -4 3c3,2 5,0 9,4 0,3 -1,5 3,5 -1,-3 0,0 -2,-3 0,-2 1,-1 1,-2l-4 -2 1 -1 -3 -1c1,-3 0,-2 3,-4 -5,-4 -3,-4 -4,-7 -1,0 -3,1 -4,2z"/>
  <path class="fil0" d="M87 24c2,5 5,4 9,3 -1,-3 -2,0 -1,-3l-2 1 -1 -2c2,-1 1,0 2,0 -2,-2 -2,-1 -4,-2 4,-3 3,1 6,-1l-6 -1 -3 6z"/>
  <path class="fil0" d="M101 23c-2,1 -1,0 -2,2 0,1 -2,3 -3,3 1,1 1,0 2,1 3,0 5,-1 7,-4 -2,-1 -1,1 -3,-1 -1,-1 -1,-1 -2,-2 -1,1 -2,0 1,2z"/>
 </g>
</svg>
