<?xml version="1.0" encoding="UTF-8"?>
<!DOCTYPE svg PUBLIC "-//W3C//DTD SVG 1.0//EN" "http://www.w3.org/TR/2001/REC-SVG-20010904/DTD/svg10.dtd">
<!-- Creator: CorelDRAW X6 -->
<svg xmlns="http://www.w3.org/2000/svg" xml:space="preserve" width="4.55333in" height="2.56in" version="1.0" style="shape-rendering:geometricPrecision; text-rendering:geometricPrecision; image-rendering:optimizeQuality; fill-rule:evenodd; clip-rule:evenodd"
viewBox="0 0 4553 2560"
 xmlns:xlink="http://www.w3.org/1999/xlink">
 <defs>
  <style type="text/css">
   <![CDATA[
    .fil0 {fill:blue}
   ]]>
  </style>
 </defs>
 <g id="Layer_x0020_1">
  <metadata id="CorelCorpID_0Corel-Layer"/>
  <path class="fil0" d="M2464 1535c5,-5 -3,3 0,0zm353 -810l0 9c0,6 1,11 3,17 0,6 1,12 3,17 1,7 3,13 6,19l0 1c-1,1 0,4 2,10l2 4c1,3 1,6 3,9 0,5 1,9 3,13l0 4c-1,4 -2,9 -3,18 -1,6 2,18 6,25 0,6 1,11 3,16l0 87c0,6 1,12 3,17l0 152 9 -9c-4,4 -7,9 -10,15 -7,12 -6,23 -6,36 -1,2 -1,3 -2,5 -3,-3 -2,-2 0,0 -1,5 -2,10 -2,15 -6,14 -10,32 -20,36l-6 -27 -9 0 -10 29 19 -4 -6 44 25 5 -22 3 -6 36 -13 -1 0 -73 7 -1 -15 -22 -5 2 -5 88c3,10 28,-6 14,46 -7,26 -20,-5 -28,8 -18,26 -1,-7 -11,4 -15,39 -8,88 -53,110 -38,18 -92,20 -133,24 -8,4 17,14 -23,16 -17,1 -24,11 -19,27 2,4 -67,-13 -67,-13 -38,-30 -94,-158 -132,-213 -36,14 -73,96 -91,131 -30,58 -20,83 -96,99 11,-41 -83,-45 -106,-43l42 -2c-40,-19 -153,5 -186,-62 -10,-20 -21,-67 -28,-91 -2,-6 -4,-11 -7,-15 -1,-5 -3,-9 -6,-13 -1,-9 -4,-16 -9,-23 0,-1 -1,-2 -1,-3 -3,-9 -5,-46 -6,-70l1 -1c3,-4 5,-8 6,-12 2,-2 4,-4 5,-6l928 24c0,-12 -22,-1 -26,-28 -6,-39 -5,-89 -10,-128 -4,-29 0,-48 -17,-75 -8,-13 -31,-51 -35,-64 -7,-23 -24,-47 -50,-48 -23,-1 -32,-9 -48,-20 -11,-8 -9,7 -16,8 -14,0 -18,-20 -28,-5 -4,6 -28,0 -38,-1l2 13 -142 27 -2 -8 24 -44c-13,3 -20,50 -63,48 -52,-3 -48,15 -78,23 -43,12 -9,-10 -56,17 -23,13 -5,-13 -25,12 0,0 -22,7 -23,7l7 -13 -93 -51c-6,-4 -36,-15 -58,-27 -18,-10 -32,2 -37,14 -1,2 -1,6 -2,9l-40 113 1 48 -16 144 -58 6c4,-7 6,-14 6,-23l0 -2c1,-4 1,-7 0,-10l0 -1c0,-14 -6,-26 -16,-34 -3,-3 -7,-7 -10,-10l0 -9c0,-8 -3,-16 -5,-23 -4,-12 -13,-23 -25,-27 -8,-5 -15,-6 -25,-6 -5,-5 -10,-8 -16,-11 16,-9 1,-21 0,0 -1,0 -1,0 -2,-1l-1 -1c-2,-9 -7,-17 -14,-23 -2,-3 -5,-5 -8,-7 6,-5 11,-9 13,-10 2,0 41,-12 33,-16 -5,-3 -28,11 -23,3 14,-23 15,-22 -8,-29 -2,-9 -7,-17 -14,-24 -6,-7 -14,-12 -23,-14 -2,-3 -5,-5 -8,-8l26 10 -7 -8 68 -8 -67 -6 0 -6 77 -9 0 -4 -71 -5 -1 -9 -7 8 -5 -6c2,-3 5,-6 6,-10l25 5 1 -9 28 -9 0 -4 -34 4 -1 -4 63 -10 -52 -6 77 -8 -38 -5 20 -10 -3 -4 -24 -9 -10 -8c3,-1 5,-2 8,-3 2,0 5,-1 7,-2l8 5 5 -7c2,0 5,-1 7,-1 1,0 1,1 2,0 9,-1 18,-3 25,-8l46 -6 -30 -11c0,-1 1,-1 1,-2l24 -4 -5 7 28 -8 -24 -11 20 -3 -42 -21c0,-1 -1,-1 -1,-2l56 -10c-3,-14 -37,-11 -14,-14 13,-2 36,-17 25,-19 -31,-7 11,-16 2,-44 -5,-15 -8,-10 -6,-38 2,-33 -11,-30 9,-68l8 78 9 -1 -17 -9 23 58 43 -45 5 5 -45 51 80 -45 -40 11 34 -36 4 5 49 -14 2 8 46 -24 0 21 12 -20 24 -3 27 -9 -9 16 14 7 -3 18 21 -35 11 13 -164 137 4 5 12 -14 126 -43 -2 -6 -13 2 124 -87 2 3 -47 34 112 -54 2 5 -53 40 3 5 95 -56 5 7 -44 48 46 -25 -39 36 3 3 67 -53 -25 44 116 -69 3 4 -32 27 63 -19 2 7 24 -12 -94 70 4 5 47 -29 2 4 -165 77 172 -39 -11 17 16 2 -12 13 75 -15 1 5 -40 4 13 6 -40 17 23 -4 -12 9 105 -24 -18 -2 54 0 -17 3 108 79 -5 7 -14 -51c9,6 17,15 23,25zm-268 787c-6,-6 6,6 0,0zm-639 -50c0,-7 13,-4 5,-15 -4,-6 -11,-14 -7,-22 5,2 6,23 14,22 3,0 11,-14 17,10 4,14 37,21 49,20 3,0 16,6 24,7 41,6 91,7 131,0 8,-1 14,0 21,0 9,-1 1,-3 12,-6 16,-4 -6,8 -9,9 -19,9 -69,9 -92,9 -33,0 -146,-8 -166,-34zm249 22c-5,0 0,2 0,1 0,0 5,-1 0,-1zm-200 -14c-5,-1 -5,3 -1,1 0,0 7,0 1,-1zm-24 -7c-3,-2 -4,-1 -7,-3 -2,-1 -4,-3 -7,-4 2,7 6,8 13,7zm756 2l8 2c-34,39 -270,43 -266,2 3,0 29,12 36,14 21,6 72,8 94,6 13,-1 10,-5 13,-6 4,-1 6,3 12,1l-3 -9c21,-1 13,8 27,-8 7,-8 23,0 34,-1 20,-2 21,3 26,-10 3,-7 8,2 14,3 9,2 8,-7 14,-10 3,6 -6,9 -10,17zm-413 -95l-1 3 1 -3zm554 -157c-5,-19 3,9 0,0zm-1052 -187l-17 1 -1 -5 9 -12 -3 6 16 11 3 0 -12 14 -2 -1 7 -15zm906 -68l-1 3 1 -3zm-566 -24c1,-1 11,-2 6,2 -1,1 -8,0 -6,-2zm-8 -2c0,0 11,0 3,2 -4,1 -4,-2 -3,-2zm-170 -2c-8,0 10,1 0,0zm728 -13l-1 3 1 -3zm-908 -6l-1 3 1 -3zm902 -2c3,2 2,3 0,0zm-237 -2c0,-7 0,8 0,0zm-4 0c-17,-4 9,2 0,0zm-101 0c0,-8 0,8 0,0zm-279 0c-6,-6 6,7 0,0zm332 -6l-1 3 1 -3zm-584 -6c-1,-8 1,10 0,0zm231 -4c0,-7 0,7 0,0zm-253 0l-1 3 1 -3zm856 -4c1,-6 3,1 3,1 2,1 2,0 2,1 0,9 -5,-2 -5,-2zm-118 -4l-1 3 1 -3zm-738 -26c5,-5 -3,3 0,0zm30 -42c0,-1 11,-9 8,0 -2,7 -9,2 -8,0zm-26 -17l23 -6 -2 10 -21 -4zm72 -17l-1 3 1 -3zm52 -10l-21 7 -1 -2 22 -5zm913 -22c2,-9 -2,10 0,0zm-920 -8c2,-11 -2,10 0,0zm-2 -12c-13,18 -35,-13 0,0zm161 -8l-1 3 1 -3zm728 -6l-1 3 1 -3zm21 -4c3,-8 -2,5 0,0zm-47 -10l-1 3 1 -3zm-760 -6c11,-12 18,-12 30,-20 9,-6 2,-5 15,-12 5,-2 10,-7 15,-9 21,-14 29,-16 42,-23 4,-2 15,-13 23,-8 -4,5 -13,7 -19,10 6,3 4,-1 7,5l-19 11 3 5c-5,-2 -7,-6 -24,7 -11,9 -3,0 -13,3 -4,1 -29,14 -36,20 -8,7 -1,6 -10,7 -15,3 -9,9 -14,3zm18 -77c-7,1 7,-1 0,0zm-6 -10c0,-6 0,6 0,0zm365 8l8 -13 2 2 -10 11zm63 11l16 -28 6 5 -22 23zm-406 -23c7,-7 -3,3 0,0zm285 -2c1,-9 -1,8 0,0zm109 -8l-1 3 1 -3zm94 -21l-10 13 10 -13zm-343 27l4 -21 4 2 -9 19zm-264 -29c-6,-15 4,11 0,0zm663 -14c7,-7 -3,3 0,0zm-659 0c3,2 2,3 0,0z"/>
  <path class="fil0" d="M2451 1997l-1 3 1 -3zm-180 -42l-1 3 1 -3zm49 -4c-2,10 3,-18 0,0zm-216 -4c0,-7 0,7 0,0zm-8 -23l-1 3 1 -3zm467 -67l-1 3 1 -3zm-79 111l167 -187 -5 -4c-9,1 -123,110 -136,127 -19,27 -43,46 -77,50 -25,3 -31,-11 -51,-7 -61,14 -35,-3 -60,-5 0,0 -85,18 -85,18 -6,13 -40,11 -51,6 -19,-9 12,-13 -1,-18 -24,-10 -8,19 -44,-18 -20,-20 -13,-2 -32,-36 -17,-31 -50,-37 -52,-80 0,-7 -5,22 -21,-1 -10,-14 -14,-21 -27,-35 -47,-49 -72,-7 -13,42 37,31 54,63 82,94 5,6 32,34 32,38 163,173 358,48 373,16z"/>
  <path class="fil0" d="M2330 1713c-4,10 6,-16 0,0zm-51 -6l-1 3 1 -3zm19 2c-14,7 10,-5 0,0zm-142 -12c5,-10 -2,4 0,0zm-110 -16l-14 30 -9 -14 -1 16c11,8 20,-2 28,6 7,7 -12,20 6,10 17,-9 13,11 30,-6 5,-5 15,-13 23,-15 1,0 102,52 104,52l5 -26 -24 9c-6,-4 -9,-20 -12,-27l2 6 275 -7 -5 16 -4 -3 -38 27 2 4c1,0 66,-41 79,-45 34,-11 55,-60 82,-3 13,28 12,-97 -34,-79 -24,10 -8,10 -32,11 -36,2 14,25 15,25 -1,25 -164,47 -181,44 -37,-7 -74,-1 -94,-7 0,0 -106,-10 -111,-10l16 -40c-15,3 -16,5 -23,2l4 -35 -89 61z"/>
  <path class="fil0" d="M2357 1674c0,-8 0,8 0,0zm-67 0l-1 3 1 -3zm59 -58c5,-5 -3,3 0,0zm-117 67l21 -15 14 13 112 -11 13 5 1 -36 35 -41c-10,-6 -85,19 -89,22 -18,13 -76,-16 -103,-20l-55 -24 2 -5c1,13 50,57 50,57 30,4 -27,42 -2,55z"/>
  <path class="fil0" d="M2284 1897c0,-7 0,7 0,0zm-32 -6c1,-7 -1,7 0,0zm-44 -32l23 8 -4 5 66 40 -4 7c12,3 106,-31 113,-68l-14 -6 1 5 -166 -10 -13 21z"/>
  <path class="fil0" d="M2716 591c-7,-1 -35,-13 -38,-17 33,6 27,2 40,15 10,10 -1,1 5,14 -13,-10 -9,-3 -6,-12zm-97 0l1 1c0,0 -1,0 -1,-1zm8 -5c43,-20 2,-8 -9,0 -6,5 -9,8 -16,10 -16,6 -9,4 -13,-4l-8 10c12,3 17,-1 23,4 -15,2 -46,0 -52,17 31,0 17,10 43,7 20,-2 31,0 51,-11l-6 -9 30 0 -7 -11 21 6c7,-5 5,-24 21,-9 19,18 16,6 31,14 5,3 23,20 27,8 3,-8 -22,-6 -20,-23l14 5c-4,-11 -12,-24 -25,-18l7 10c-17,2 -47,-37 -76,-15 -14,10 -19,15 -36,20 -7,2 -1,-10 -1,-11z"/>
  <path class="fil0" d="M1957 608l-5 -5 12 -3c-12,8 -1,1 -7,8zm-17 -8c0,-5 3,0 1,0 0,0 -1,5 -1,0zm1 -64l6 3c-8,18 -8,6 -4,27 2,9 -6,20 -13,21 -4,-7 2,-10 0,-18 -15,1 -3,28 4,27 7,-2 3,1 8,7 9,10 1,8 6,17 9,0 6,-4 11,-9 3,-3 9,-4 13,-6 7,-3 16,-14 18,-21l14 0c-8,-6 -22,-4 -36,-12 -20,-11 -10,-19 -13,-27l-6 16c-6,-4 10,-30 9,-44 -7,-1 -16,11 -17,19z"/>
  <path class="fil0" d="M2777 647l9 8c-10,7 -8,-2 -17,-3 0,11 8,17 16,22 11,7 12,12 21,19l0 -1c-2,-1 -3,-3 -5,-5 -9,-8 -14,-19 -14,-32 0,-4 0,-8 1,-11l-10 4z"/>
  <path class="fil0" d="M2203 621l1 1c0,0 0,0 0,0 0,0 -1,0 -1,-1zm-6 0c2,-2 6,3 2,1 0,0 -5,2 -2,-1zm-43 18c11,8 27,-7 33,-16 13,4 6,2 19,2 3,-19 36,-30 38,-41 -12,-1 -28,23 -36,18 3,-13 2,9 12,-27 2,-6 9,-22 8,-25 -8,3 -10,17 -14,23 -7,11 -10,13 -16,26 -5,10 -40,29 -45,39z"/>
  <path class="fil0" d="M2053 1630l1 1c0,0 0,0 0,0 0,0 -1,0 -1,-1zm1 -11l4 6 -8 6 -9 -4c-3,7 1,8 -9,7 3,24 -11,12 -21,25 20,0 -14,-5 26,0 12,1 3,-1 14,-3 10,-2 6,1 14,-9l-5 -5c8,-5 6,-4 11,-11 9,0 6,4 13,-2l-7 0 10 -15c-7,4 -25,5 -32,5z"/>
  <path class="fil0" d="M2138 544l7 6 28 -3c9,1 1,2 9,2 0,-16 7,-16 1,-21 -9,-3 -16,7 -25,5 0,-5 11,-9 14,-10 -9,-5 -4,-3 -9,0 -9,4 -19,14 -25,22z"/>
  <path class="fil0" d="M2015 1747c6,7 7,3 10,12 -5,1 -4,-5 -10,3l12 2 -12 11c11,7 17,1 29,14 0,10 -2,15 11,17 -3,-9 -1,0 -7,-9 1,-8 2,-2 4,-8l-14 -7 4 -4 -9 -4c4,-10 1,-7 9,-13 -18,-12 -8,-13 -14,-22 -5,0 -10,4 -13,8z"/>
  <path class="fil0" d="M1966 559c8,16 18,13 29,9 -4,-9 -6,-1 -3,-10l-7 4 -4 -6c7,-4 2,1 8,-1 -7,-7 -7,-2 -14,-6 13,-9 11,2 20,-3l-20 -4 -8 19z"/>
  <path class="fil0" d="M2013 557c-6,4 -3,0 -5,6 -1,4 -6,9 -8,10 4,3 2,1 6,2 9,1 17,-3 22,-12 -8,-4 -2,2 -9,-5 -3,-3 -3,-4 -7,-7 -2,5 -5,1 2,6z"/>
 </g>
</svg>
